<svg width="16" height="16" viewBox="0 0 16 16" fill="none" xmlns="http://www.w3.org/2000/svg">
<path d="M8 4.29321V6.51321" stroke="white" stroke-miterlimit="10" stroke-linecap="round"/>
<path d="M8.01522 1.33325C5.56189 1.33325 3.57522 3.31992 3.57522 5.77325V7.17325C3.57522 7.62659 3.38855 8.30659 3.15522 8.69325L2.30855 10.1066C1.78855 10.9799 2.14855 11.9533 3.10855 12.2733C6.29522 13.3333 9.74188 13.3333 12.9286 12.2733C13.8286 11.9733 14.2152 10.9199 13.7286 10.1066L12.8819 8.69325C12.6486 8.30659 12.4619 7.61992 12.4619 7.17325V5.77325C12.4552 3.33325 10.4552 1.33325 8.01522 1.33325Z" stroke="white" stroke-miterlimit="10" stroke-linecap="round"/>
<path d="M10.2213 12.5466C10.2213 13.7666 9.22125 14.7666 8.00125 14.7666C7.39458 14.7666 6.83458 14.5133 6.43458 14.1133C6.03458 13.7133 5.78125 13.1533 5.78125 12.5466" stroke="white" stroke-miterlimit="10"/>
<path d="M11.4971 1.16675C12.7856 1.16675 13.8309 2.21124 13.8311 3.49976C13.8311 4.78842 12.7857 5.83374 11.4971 5.83374C10.2086 5.83356 9.16406 4.78831 9.16406 3.49976C9.16424 2.21135 10.2087 1.16692 11.4971 1.16675Z" fill="#ED0006" stroke="#3C3F48"/>
</svg>
