<svg width="24" height="24" viewBox="0 0 24 24" fill="none" xmlns="http://www.w3.org/2000/svg">
<path d="M21.9989 16.5V19.5C21.9989 20.88 20.8789 22 19.4989 22H12.3589C11.4689 22 11.0289 20.93 11.6489 20.3L17.5189 14.3C17.7089 14.11 17.9689 14 18.2289 14H19.4989C20.8789 14 21.9989 15.12 21.9989 16.5Z" fill="#1F1F1F"/>
<path d="M18.3722 11.29L15.6622 14L13.2022 16.45C12.5722 17.08 11.4922 16.64 11.4922 15.75C11.4922 12.54 11.4922 7.26002 11.4922 7.26002C11.4922 6.99002 11.6022 6.74002 11.7822 6.55002L12.7022 5.63002C13.6822 4.65002 15.2622 4.65002 16.2422 5.63002L18.3622 7.75002C19.3522 8.73002 19.3522 10.31 18.3722 11.29Z" fill="#1F1F1F"/>
<path d="M7.5 2H4.5C3 2 2 3 2 4.5V18C2 18.27 2.03 18.54 2.08 18.8C2.11 18.93 2.14 19.06 2.18 19.19C2.23 19.34 2.28 19.49 2.34 19.63C2.35 19.64 2.35 19.65 2.35 19.65C2.36 19.65 2.36 19.65 2.35 19.66C2.49 19.94 2.65 20.21 2.84 20.46C2.95 20.59 3.06 20.71 3.17 20.83C3.28 20.95 3.4 21.05 3.53 21.15L3.54 21.16C3.79 21.35 4.06 21.51 4.34 21.65C4.35 21.64 4.35 21.64 4.35 21.65C4.5 21.72 4.65 21.77 4.81 21.82C4.94 21.86 5.07 21.89 5.2 21.92C5.46 21.97 5.73 22 6 22C6.41 22 6.83 21.94 7.22 21.81C7.33 21.77 7.44 21.73 7.55 21.68C7.9 21.54 8.24 21.34 8.54 21.08C8.63 21.01 8.73 20.92 8.82 20.83L8.86 20.79C9.56 20.07 10 19.08 10 18V4.5C10 3 9 2 7.5 2ZM6 19.5C5.17 19.5 4.5 18.83 4.5 18C4.5 17.17 5.17 16.5 6 16.5C6.83 16.5 7.5 17.17 7.5 18C7.5 18.83 6.83 19.5 6 19.5Z" fill="#1F1F1F"/>
</svg>
