<svg width="24" height="24" viewBox="0 0 24 24" fill="none" xmlns="http://www.w3.org/2000/svg">
<path d="M17.9981 7.16C17.9381 7.15 17.8681 7.15 17.8081 7.16C16.4281 7.11 15.3281 5.98 15.3281 4.58C15.3281 3.15 16.4781 2 17.9081 2C19.3381 2 20.4881 3.16 20.4881 4.58C20.4781 5.98 19.3781 7.11 17.9981 7.16Z" stroke="white" stroke-width="1.5" stroke-linecap="round" stroke-linejoin="round"/>
<path d="M16.9675 14.4399C18.3375 14.6699 19.8475 14.4299 20.9075 13.7199C22.3175 12.7799 22.3175 11.2399 20.9075 10.2999C19.8375 9.58992 18.3075 9.34991 16.9375 9.58991" stroke="white" stroke-width="1.5" stroke-linecap="round" stroke-linejoin="round"/>
<path d="M5.96656 7.16C6.02656 7.15 6.09656 7.15 6.15656 7.16C7.53656 7.11 8.63656 5.98 8.63656 4.58C8.63656 3.15 7.48656 2 6.05656 2C4.62656 2 3.47656 3.16 3.47656 4.58C3.48656 5.98 4.58656 7.11 5.96656 7.16Z" stroke="white" stroke-width="1.5" stroke-linecap="round" stroke-linejoin="round"/>
<path d="M6.9975 14.4399C5.6275 14.6699 4.1175 14.4299 3.0575 13.7199C1.6475 12.7799 1.6475 11.2399 3.0575 10.2999C4.1275 9.58992 5.6575 9.34991 7.0275 9.58991" stroke="white" stroke-width="1.5" stroke-linecap="round" stroke-linejoin="round"/>
<path d="M11.9981 14.63C11.9381 14.62 11.8681 14.62 11.8081 14.63C10.4281 14.58 9.32812 13.45 9.32812 12.05C9.32812 10.62 10.4781 9.46997 11.9081 9.46997C13.3381 9.46997 14.4881 10.63 14.4881 12.05C14.4781 13.45 13.3781 14.59 11.9981 14.63Z" stroke="white" stroke-width="1.5" stroke-linecap="round" stroke-linejoin="round"/>
<path d="M9.08875 17.7799C7.67875 18.7199 7.67875 20.2599 9.08875 21.1999C10.6888 22.2699 13.3087 22.2699 14.9087 21.1999C16.3187 20.2599 16.3187 18.7199 14.9087 17.7799C13.3187 16.7199 10.6888 16.7199 9.08875 17.7799Z" stroke="white" stroke-width="1.5" stroke-linecap="round" stroke-linejoin="round"/>
</svg>
