<svg width="20" height="20" viewBox="0 0 20 20" fill="none" xmlns="http://www.w3.org/2000/svg">
<path d="M17.5 4.98332C14.725 4.70832 11.9333 4.56665 9.15 4.56665C7.5 4.56665 5.85 4.64998 4.2 4.81665L2.5 4.98332" stroke="#FF4C24" stroke-width="1.5" stroke-linecap="round" stroke-linejoin="round"/>
<path d="M7.08594 4.14175L7.26927 3.05008C7.4026 2.25841 7.5026 1.66675 8.91094 1.66675H11.0943C12.5026 1.66675 12.6109 2.29175 12.7359 3.05841L12.9193 4.14175" stroke="#FF4C24" stroke-width="1.5" stroke-linecap="round" stroke-linejoin="round"/>
<path d="M15.7057 7.6167L15.1641 16.0084C15.0724 17.3167 14.9974 18.3334 12.6724 18.3334H7.3224C4.9974 18.3334 4.9224 17.3167 4.83073 16.0084L4.28906 7.6167" stroke="#FF4C24" stroke-width="1.5" stroke-linecap="round" stroke-linejoin="round"/>
<path d="M8.60938 13.75H11.3844" stroke="#FF4C24" stroke-width="1.5" stroke-linecap="round" stroke-linejoin="round"/>
<path d="M7.91406 10.4167H12.0807" stroke="#FF4C24" stroke-width="1.5" stroke-linecap="round" stroke-linejoin="round"/>
</svg>
